<mxfile host="app.diagrams.net" agent="Mozilla/5.0 (Windows NT 10.0; Win64; x64) AppleWebKit/537.36 (KHTML, like Gecko) Chrome/137.0.0.0 Safari/537.36" version="27.1.4">
  <diagram name="Страница — 1" id="UBEjJWZKq5eN6RA-wuHz">
    <mxGraphModel dx="868" dy="1295" grid="1" gridSize="10" guides="1" tooltips="1" connect="1" arrows="1" fold="1" page="1" pageScale="1" pageWidth="1169" pageHeight="827" math="0" shadow="0">
      <root>
        <mxCell id="0" />
        <mxCell id="1" parent="0" />
        <mxCell id="rII4CB3ttPfFxe3EODr5-1" value="" style="shape=table;startSize=0;container=1;collapsible=0;childLayout=tableLayout;" vertex="1" parent="1">
          <mxGeometry x="260" y="-790" width="680" height="1410" as="geometry" />
        </mxCell>
        <mxCell id="rII4CB3ttPfFxe3EODr5-2" value="" style="shape=tableRow;horizontal=0;startSize=0;swimlaneHead=0;swimlaneBody=0;strokeColor=inherit;top=0;left=0;bottom=0;right=0;collapsible=0;dropTarget=0;fillColor=none;points=[[0,0.5],[1,0.5]];portConstraint=eastwest;" vertex="1" parent="rII4CB3ttPfFxe3EODr5-1">
          <mxGeometry width="680" height="60" as="geometry" />
        </mxCell>
        <mxCell id="rII4CB3ttPfFxe3EODr5-3" value="Пользователь" style="shape=partialRectangle;html=1;whiteSpace=wrap;connectable=0;strokeColor=inherit;overflow=hidden;fillColor=none;top=0;left=0;bottom=0;right=0;pointerEvents=1;" vertex="1" parent="rII4CB3ttPfFxe3EODr5-2">
          <mxGeometry width="226" height="60" as="geometry">
            <mxRectangle width="226" height="60" as="alternateBounds" />
          </mxGeometry>
        </mxCell>
        <mxCell id="rII4CB3ttPfFxe3EODr5-4" value="Система" style="shape=partialRectangle;html=1;whiteSpace=wrap;connectable=0;strokeColor=inherit;overflow=hidden;fillColor=none;top=0;left=0;bottom=0;right=0;pointerEvents=1;" vertex="1" parent="rII4CB3ttPfFxe3EODr5-2">
          <mxGeometry x="226" width="228" height="60" as="geometry">
            <mxRectangle width="228" height="60" as="alternateBounds" />
          </mxGeometry>
        </mxCell>
        <mxCell id="rII4CB3ttPfFxe3EODr5-5" value="Админ" style="shape=partialRectangle;html=1;whiteSpace=wrap;connectable=0;strokeColor=inherit;overflow=hidden;fillColor=none;top=0;left=0;bottom=0;right=0;pointerEvents=1;" vertex="1" parent="rII4CB3ttPfFxe3EODr5-2">
          <mxGeometry x="454" width="226" height="60" as="geometry">
            <mxRectangle width="226" height="60" as="alternateBounds" />
          </mxGeometry>
        </mxCell>
        <mxCell id="rII4CB3ttPfFxe3EODr5-6" value="" style="shape=tableRow;horizontal=0;startSize=0;swimlaneHead=0;swimlaneBody=0;strokeColor=inherit;top=0;left=0;bottom=0;right=0;collapsible=0;dropTarget=0;fillColor=none;points=[[0,0.5],[1,0.5]];portConstraint=eastwest;" vertex="1" parent="rII4CB3ttPfFxe3EODr5-1">
          <mxGeometry y="60" width="680" height="1350" as="geometry" />
        </mxCell>
        <mxCell id="rII4CB3ttPfFxe3EODr5-7" value="" style="shape=partialRectangle;html=1;whiteSpace=wrap;connectable=0;strokeColor=inherit;overflow=hidden;fillColor=none;top=0;left=0;bottom=0;right=0;pointerEvents=1;" vertex="1" parent="rII4CB3ttPfFxe3EODr5-6">
          <mxGeometry width="226" height="1350" as="geometry">
            <mxRectangle width="226" height="1350" as="alternateBounds" />
          </mxGeometry>
        </mxCell>
        <mxCell id="rII4CB3ttPfFxe3EODr5-8" value="" style="shape=partialRectangle;html=1;whiteSpace=wrap;connectable=0;strokeColor=inherit;overflow=hidden;fillColor=none;top=0;left=0;bottom=0;right=0;pointerEvents=1;" vertex="1" parent="rII4CB3ttPfFxe3EODr5-6">
          <mxGeometry x="226" width="228" height="1350" as="geometry">
            <mxRectangle width="228" height="1350" as="alternateBounds" />
          </mxGeometry>
        </mxCell>
        <mxCell id="rII4CB3ttPfFxe3EODr5-9" value="" style="shape=partialRectangle;html=1;whiteSpace=wrap;connectable=0;strokeColor=inherit;overflow=hidden;fillColor=none;top=0;left=0;bottom=0;right=0;pointerEvents=1;" vertex="1" parent="rII4CB3ttPfFxe3EODr5-6">
          <mxGeometry x="454" width="226" height="1350" as="geometry">
            <mxRectangle width="226" height="1350" as="alternateBounds" />
          </mxGeometry>
        </mxCell>
        <mxCell id="rII4CB3ttPfFxe3EODr5-26" style="edgeStyle=orthogonalEdgeStyle;rounded=0;orthogonalLoop=1;jettySize=auto;html=1;entryX=0.5;entryY=0;entryDx=0;entryDy=0;exitX=0.5;exitY=1;exitDx=0;exitDy=0;" edge="1" parent="1" source="rII4CB3ttPfFxe3EODr5-12" target="rII4CB3ttPfFxe3EODr5-14">
          <mxGeometry relative="1" as="geometry">
            <mxPoint x="380" y="-670" as="sourcePoint" />
          </mxGeometry>
        </mxCell>
        <mxCell id="rII4CB3ttPfFxe3EODr5-12" value="Старт" style="rounded=1;whiteSpace=wrap;html=1;arcSize=50;" vertex="1" parent="1">
          <mxGeometry x="310" y="-710" width="127" height="30" as="geometry" />
        </mxCell>
        <mxCell id="rII4CB3ttPfFxe3EODr5-13" value="Старт" style="rounded=1;whiteSpace=wrap;html=1;arcSize=50;" vertex="1" parent="1">
          <mxGeometry x="760" y="-710" width="127" height="30" as="geometry" />
        </mxCell>
        <mxCell id="rII4CB3ttPfFxe3EODr5-27" style="edgeStyle=orthogonalEdgeStyle;rounded=0;orthogonalLoop=1;jettySize=auto;html=1;entryX=0.5;entryY=0;entryDx=0;entryDy=0;" edge="1" parent="1" source="rII4CB3ttPfFxe3EODr5-14" target="rII4CB3ttPfFxe3EODr5-25">
          <mxGeometry relative="1" as="geometry" />
        </mxCell>
        <mxCell id="rII4CB3ttPfFxe3EODr5-14" value="Пользователь зашел на сайт" style="rounded=0;whiteSpace=wrap;html=1;" vertex="1" parent="1">
          <mxGeometry x="313.5" y="-650" width="120" height="60" as="geometry" />
        </mxCell>
        <mxCell id="rII4CB3ttPfFxe3EODr5-30" style="edgeStyle=orthogonalEdgeStyle;rounded=0;orthogonalLoop=1;jettySize=auto;html=1;entryX=0;entryY=0.5;entryDx=0;entryDy=0;" edge="1" parent="1" source="rII4CB3ttPfFxe3EODr5-25" target="rII4CB3ttPfFxe3EODr5-28">
          <mxGeometry relative="1" as="geometry" />
        </mxCell>
        <mxCell id="rII4CB3ttPfFxe3EODr5-25" value="Процесс входа в аккаунт" style="rounded=0;whiteSpace=wrap;html=1;" vertex="1" parent="1">
          <mxGeometry x="313.5" y="-570" width="120" height="60" as="geometry" />
        </mxCell>
        <mxCell id="rII4CB3ttPfFxe3EODr5-31" style="edgeStyle=orthogonalEdgeStyle;rounded=0;orthogonalLoop=1;jettySize=auto;html=1;" edge="1" parent="1" source="rII4CB3ttPfFxe3EODr5-28" target="rII4CB3ttPfFxe3EODr5-29">
          <mxGeometry relative="1" as="geometry" />
        </mxCell>
        <mxCell id="rII4CB3ttPfFxe3EODr5-28" value="Проверка данных" style="rounded=0;whiteSpace=wrap;html=1;" vertex="1" parent="1">
          <mxGeometry x="540" y="-570" width="120" height="60" as="geometry" />
        </mxCell>
        <mxCell id="rII4CB3ttPfFxe3EODr5-33" style="edgeStyle=orthogonalEdgeStyle;rounded=0;orthogonalLoop=1;jettySize=auto;html=1;" edge="1" parent="1" source="rII4CB3ttPfFxe3EODr5-29" target="rII4CB3ttPfFxe3EODr5-32">
          <mxGeometry relative="1" as="geometry" />
        </mxCell>
        <mxCell id="rII4CB3ttPfFxe3EODr5-36" value="Нет" style="edgeLabel;html=1;align=center;verticalAlign=middle;resizable=0;points=[];" vertex="1" connectable="0" parent="rII4CB3ttPfFxe3EODr5-33">
          <mxGeometry x="0.6105" y="-1" relative="1" as="geometry">
            <mxPoint as="offset" />
          </mxGeometry>
        </mxCell>
        <mxCell id="rII4CB3ttPfFxe3EODr5-39" style="edgeStyle=orthogonalEdgeStyle;rounded=0;orthogonalLoop=1;jettySize=auto;html=1;entryX=1;entryY=0.5;entryDx=0;entryDy=0;" edge="1" parent="1" source="rII4CB3ttPfFxe3EODr5-29" target="rII4CB3ttPfFxe3EODr5-38">
          <mxGeometry relative="1" as="geometry">
            <Array as="points">
              <mxPoint x="676" y="-460" />
              <mxPoint x="676" y="-300" />
            </Array>
          </mxGeometry>
        </mxCell>
        <mxCell id="rII4CB3ttPfFxe3EODr5-40" value="Да" style="edgeLabel;html=1;align=center;verticalAlign=middle;resizable=0;points=[];" vertex="1" connectable="0" parent="rII4CB3ttPfFxe3EODr5-39">
          <mxGeometry x="-0.7973" relative="1" as="geometry">
            <mxPoint as="offset" />
          </mxGeometry>
        </mxCell>
        <mxCell id="rII4CB3ttPfFxe3EODr5-29" value="Пользователь существует?" style="rhombus;whiteSpace=wrap;html=1;" vertex="1" parent="1">
          <mxGeometry x="540" y="-490" width="120" height="60" as="geometry" />
        </mxCell>
        <mxCell id="rII4CB3ttPfFxe3EODr5-35" style="edgeStyle=orthogonalEdgeStyle;rounded=0;orthogonalLoop=1;jettySize=auto;html=1;" edge="1" parent="1" source="rII4CB3ttPfFxe3EODr5-32" target="rII4CB3ttPfFxe3EODr5-34">
          <mxGeometry relative="1" as="geometry" />
        </mxCell>
        <mxCell id="rII4CB3ttPfFxe3EODr5-32" value="Отправка ошибки об несуществующем пользователе" style="rounded=0;whiteSpace=wrap;html=1;" vertex="1" parent="1">
          <mxGeometry x="540" y="-410" width="120" height="60" as="geometry" />
        </mxCell>
        <mxCell id="rII4CB3ttPfFxe3EODr5-37" style="edgeStyle=orthogonalEdgeStyle;rounded=0;orthogonalLoop=1;jettySize=auto;html=1;entryX=0.5;entryY=1;entryDx=0;entryDy=0;" edge="1" parent="1" source="rII4CB3ttPfFxe3EODr5-34" target="rII4CB3ttPfFxe3EODr5-25">
          <mxGeometry relative="1" as="geometry" />
        </mxCell>
        <mxCell id="rII4CB3ttPfFxe3EODr5-34" value="Пользователь регистрируется" style="rounded=0;whiteSpace=wrap;html=1;" vertex="1" parent="1">
          <mxGeometry x="313.5" y="-490" width="120" height="60" as="geometry" />
        </mxCell>
        <mxCell id="rII4CB3ttPfFxe3EODr5-38" value="Успешный вход" style="rounded=0;whiteSpace=wrap;html=1;" vertex="1" parent="1">
          <mxGeometry x="310" y="-330" width="120" height="60" as="geometry" />
        </mxCell>
        <mxCell id="rII4CB3ttPfFxe3EODr5-41" value="Переход на стрницу блогов" style="rounded=0;whiteSpace=wrap;html=1;" vertex="1" parent="1">
          <mxGeometry x="310" y="-240" width="120" height="60" as="geometry" />
        </mxCell>
        <mxCell id="rII4CB3ttPfFxe3EODr5-42" value="Успешный вход" style="rounded=0;whiteSpace=wrap;html=1;" vertex="1" parent="1">
          <mxGeometry x="310" y="-150" width="120" height="60" as="geometry" />
        </mxCell>
        <mxCell id="rII4CB3ttPfFxe3EODr5-43" value="Успешный вход" style="rounded=0;whiteSpace=wrap;html=1;" vertex="1" parent="1">
          <mxGeometry x="310" y="-60" width="120" height="60" as="geometry" />
        </mxCell>
        <mxCell id="rII4CB3ttPfFxe3EODr5-44" value="Успешный вход" style="rounded=0;whiteSpace=wrap;html=1;" vertex="1" parent="1">
          <mxGeometry x="310" y="30" width="120" height="60" as="geometry" />
        </mxCell>
        <mxCell id="rII4CB3ttPfFxe3EODr5-45" value="Успешный вход" style="rounded=0;whiteSpace=wrap;html=1;" vertex="1" parent="1">
          <mxGeometry x="310" y="120" width="120" height="60" as="geometry" />
        </mxCell>
        <mxCell id="rII4CB3ttPfFxe3EODr5-46" value="Успешный вход" style="rounded=0;whiteSpace=wrap;html=1;" vertex="1" parent="1">
          <mxGeometry x="310" y="210" width="120" height="60" as="geometry" />
        </mxCell>
      </root>
    </mxGraphModel>
  </diagram>
</mxfile>
